PathFileType	4	(X/Y/Z)	/Users/itak/Documents/Research/Walk-IL/dataset/trc/00018_00004.trc
DataRate	CameraRate	NumFrames	NumMarkers	Units	OrigDataRate	OrigDataStartFrame	OrigNumFrames
100.000000	100.000000	4	54	mm	100.000000	0	552
Frame#	Time	RPSI			LPSI			L3			STRN			T10			C7			CLAV			RBAK			LBAK			LSHO			LUPA			LAEL			LAOL			LWPS			LFRA			LIFD			LHPS			LHTS			RSHO			RUPA			RAEL			RAOL			RWTS			RWPS			RFRA			RIFD			RHTS			RHPS			RBHD			LFHD			RFHD			LBHD			LHIP			RHIP			RASI			LASI			LKNE			LTHI			LANK			LTIP			LTOE			LMT1			LMT5			LHEE			RKNE			RTHI			RANK			RTIP			RTOE			RMT1			RMT5			RHEE			LWTS			*53			
		X1	Y1	Z1	X2	Y2	Z2	X3	Y3	Z3	X4	Y4	Z4	X5	Y5	Z5	X6	Y6	Z6	X7	Y7	Z7	X8	Y8	Z8	X9	Y9	Z9	X10	Y10	Z10	X11	Y11	Z11	X12	Y12	Z12	X13	Y13	Z13	X14	Y14	Z14	X15	Y15	Z15	X16	Y16	Z16	X17	Y17	Z17	X18	Y18	Z18	X19	Y19	Z19	X20	Y20	Z20	X21	Y21	Z21	X22	Y22	Z22	X23	Y23	Z23	X24	Y24	Z24	X25	Y25	Z25	X26	Y26	Z26	X27	Y27	Z27	X28	Y28	Z28	X29	Y29	Z29	X30	Y30	Z30	X31	Y31	Z31	X32	Y32	Z32	X33	Y33	Z33	X34	Y34	Z34	X35	Y35	Z35	X36	Y36	Z36	X37	Y37	Z37	X38	Y38	Z38	X39	Y39	Z39	X40	Y40	Z40	X41	Y41	Z41	X42	Y42	Z42	X43	Y43	Z43	X44	Y44	Z44	X45	Y45	Z45	X46	Y46	Z46	X47	Y47	Z47	X48	Y48	Z48	X49	Y49	Z49	X50	Y50	Z50	X51	Y51	Z51	X52	Y52	Z52	X53	Y53	Z53	X54	Y54	Z54	

1	0	1029.48388671875	1053.038818359375	-235.7688751220703	1013.817260742188	1046.757568359375	-398.7980651855469	1015.953308105469	1110.970825195312	-326.9752502441406	1228.198974609375	1317.857788085938	-330.4694519042969	979.9765625	1248.80078125	-329.4858093261719	1006.560852050781	1519.408325195312	-341.8146667480469	1175.792602539062	1441.361083984375	-334.3352966308594	969.0213623046875	1377.580444335938	-262.4058227539062	995.1845703125	1477.436279296875	-438.8323364257812	1098.102416992188	1493.444458007812	-511.695556640625	1075.584594726562	1367.308349609375	-590.3934936523438	1085.64013671875	1149.668823242188	-615.4361572265625	1031.026000976562	1134.912475585938	-527.150634765625	1101.711303710938	882.4949340820312	-603.7381591796875	1101.491943359375	1034.392456054688	-621.976318359375	1205.623901367188	715.3870849609375	-540.9808959960938	1135.446533203125	793.2819213867188	-602.7018432617188	1200.11474609375	804.8467407226562	-574.045166015625	1083.046020507812	1511.746337890625	-165.8460998535156	1074.21728515625	1438.99951171875	-92.72799682617188	1058.43994140625	1168.972778320312	-72.82730102539062	1060.58203125	1141.306884765625	-168.8669281005859	1198.911254882812	915.6211547851562	-99.064453125	1132.15087890625	898.977294921875	-38.10222244262695	1075.44091796875	1094.801147460938	-57.20038604736328	1224.877319335938	728.380126953125	-108.2153091430664	1234.067749023438	806.77734375	-81.87530517578125	1175.850952148438	800.313232421875	-35.3606071472168	1056.539184570312	1707.284057617188	-263.3711853027344	1238.252319335938	1729.663330078125	-369.6846313476562	1230.533813476562	1730.190307617188	-271.2693481445312	1059.974365234375	1710.77783203125	-407.2506713867188	1101.321166992188	949.7317504882812	-511.8400573730469	1152.621948242188	949.4822387695312	-141.9368743896484	1247.005981445312	984.9061279296875	-224.0625	1223.414672851562	1000.876098632812	-458.0279235839844	1142.744750976562	504.9719848632812	-462.8215637207031	1093.908569335938	655.7340087890625	-501.6557006835938	1041.534057617188	28.52775764465332	-457.0649719238281	1060.251342773438	275.2170715332031	-477.6939697265625	1264.412841796875	25.53253746032715	-397.7196350097656	1205.5107421875	34.69955062866211	-378.5745849609375	1165.035400390625	25.9757080078125	-478.6728210449219	974.0924072265625	35.17240524291992	-401.9869384765625	1149.857666015625	512.07666015625	-191.6585388183594	1174.464599609375	781.20703125	-147.5513305664062	1029.612182617188	33.25539779663086	-211.1745452880859	1121.251220703125	391.4409790039062	-190.3507843017578	1261.672241210938	28.89969635009766	-255.5776214599609	1197.715087890625	35.92849731445312	-284.6581420898438	1178.591186523438	28.52849197387695	-189.4058227539062	972.9005126953125	34.69721603393555	-254.8197021484375	1177.505249023438	898.296142578125	-559.9252319335938	nan	nan	nan	
2	0.01	1029.561401367188	1053.03125	-235.7092742919922	1013.756774902344	1046.783325195312	-398.6993103027344	1016.090698242188	1110.971801757812	-326.8614807128906	1228.294311523438	1317.80126953125	-330.3656005859375	979.9707641601562	1248.852172851562	-329.391845703125	1006.822570800781	1519.436767578125	-341.6864318847656	1175.943115234375	1441.329833984375	-334.1907958984375	969.182373046875	1377.589111328125	-262.239013671875	995.3123779296875	1477.449340820312	-438.6833190917969	1098.230346679688	1493.424560546875	-511.5790710449219	1075.680908203125	1367.28369140625	-590.2259521484375	1085.630615234375	1149.689575195312	-615.3096313476562	1030.923828125	1134.94384765625	-527.0079956054688	1101.5869140625	882.4774780273438	-603.62353515625	1101.402099609375	1034.364624023438	-621.79443359375	1205.33642578125	715.2496948242188	-540.7630615234375	1135.234252929688	793.27734375	-602.5780029296875	1199.928344726562	804.874755859375	-573.9073486328125	1083.33447265625	1511.772583007812	-165.7093505859375	1074.426513671875	1438.978759765625	-92.60976409912109	1058.4931640625	1168.971923828125	-72.73522186279297	1060.558471679688	1141.309448242188	-168.7588500976562	1198.892333984375	915.5645141601562	-99.05426025390625	1132.17041015625	898.9410400390625	-38.04082489013672	1075.534545898438	1094.783325195312	-57.08910751342773	1224.767944335938	728.3433227539062	-108.2663345336914	1234.020385742188	806.7265014648438	-81.93167114257812	1175.808715820312	800.26220703125	-35.32085800170898	1056.47314453125	1707.17578125	-263.2660217285156	1238.223510742188	1729.783569335938	-369.4548034667969	1230.425659179688	1730.296020507812	-270.9862060546875	1060.07421875	1710.709106445312	-407.1589965820312	1101.356323242188	949.7521362304688	-511.7900390625	1152.774047851562	949.4290161132812	-141.8998870849609	1247.094848632812	984.8841552734375	-224.0202789306641	1223.475952148438	1000.867614746094	-457.9683532714844	1142.805908203125	504.9687805175781	-462.7826538085938	1093.746826171875	655.821044921875	-501.5703430175781	1041.537475585938	28.53299903869629	-457.0541687011719	1060.269653320312	275.233154296875	-477.679931640625	1264.4091796875	25.52324485778809	-397.7163696289062	1205.494750976562	34.6783332824707	-378.5672912597656	1165.035400390625	25.97122383117676	-478.6744079589844	974.1026000976562	35.18154144287109	-401.9822692871094	1149.947387695312	512.0510864257812	-191.6507568359375	1174.56103515625	781.1712036132812	-147.5484466552734	1029.606323242188	33.25632095336914	-211.1811828613281	1121.291259765625	391.419189453125	-190.2997894287109	1261.669067382812	28.90136337280273	-255.5761871337891	1197.711059570312	35.93124771118164	-284.6582946777344	1178.592529296875	28.53263664245605	-189.4085998535156	972.9038696289062	34.68582916259766	-254.8121337890625	1177.373046875	898.2601928710938	-559.812744140625	nan	nan	nan	
3	0.02	1029.64892578125	1053.021728515625	-235.63671875	1013.699462890625	1046.810913085938	-398.5791015625	1016.267822265625	1110.970336914062	-326.7208251953125	1228.422119140625	1317.734741210938	-330.232666015625	979.9866943359375	1248.911743164062	-329.2769775390625	1007.128540039062	1519.469360351562	-341.5205688476562	1176.1279296875	1441.287109375	-334.0164794921875	969.368896484375	1377.60546875	-262.0379333496094	995.4771118164062	1477.466430664062	-438.4941101074219	1098.398071289062	1493.405151367188	-511.4344482421875	1075.807739257812	1367.2587890625	-590.0259399414062	1085.613159179688	1149.71044921875	-615.1492919921875	1030.789306640625	1134.98876953125	-526.8212890625	1101.415161132812	882.4613647460938	-603.4675903320312	1101.285766601562	1034.320556640625	-621.5657348632812	1204.99951171875	715.0848388671875	-540.512451171875	1134.97705078125	793.2691040039062	-602.4133911132812	1199.695556640625	804.8649291992188	-573.7225341796875	1083.70166015625	1511.802490234375	-165.5322570800781	1074.6962890625	1438.95458984375	-92.45787811279297	1058.580810546875	1168.968627929688	-72.614501953125	1060.5478515625	1141.310424804688	-168.6262969970703	1198.870483398438	915.4815063476562	-99.03662109375	1132.1884765625	898.8926391601562	-37.96196365356445	1075.6611328125	1094.760864257812	-56.9495735168457	1224.6298828125	728.2999877929688	-108.3320999145508	1233.956298828125	806.6613159179688	-81.99634552001953	1175.728637695312	800.1881103515625	-35.28315734863281	1056.391723632812	1707.040893554688	-263.1381530761719	1238.19677734375	1729.942504882812	-369.1616821289062	1230.29736328125	1730.423461914062	-270.6356201171875	1060.203491210938	1710.624633789062	-407.0424499511719	1101.415405273438	949.77587890625	-511.7226257324219	1152.92236328125	949.354736328125	-141.8688812255859	1247.215698242188	984.8596801757812	-223.9540710449219	1223.549438476562	1000.853576660156	-457.8897094726562	1142.884155273438	504.9582824707031	-462.7307739257812	1093.558471679688	655.930908203125	-501.457763671875	1041.541381835938	28.54182815551758	-457.0409240722656	1060.290161132812	275.2504272460938	-477.6592712402344	1264.404418945312	25.51009559631348	-397.7114562988281	1205.486206054688	34.66764831542969	-378.563720703125	1165.035400390625	25.96833992004395	-478.6752014160156	974.1149291992188	35.1905517578125	-401.9754943847656	1150.049560546875	512.0155029296875	-191.6395721435547	1174.674072265625	781.1253662109375	-147.5383453369141	1029.599975585938	33.25674057006836	-211.1851806640625	1121.339233398438	391.3890991210938	-190.2325897216797	1261.665161132812	28.90405654907227	-255.5756530761719	1197.707763671875	35.93339157104492	-284.6583557128906	1178.593139648438	28.53646469116211	-189.4109191894531	972.9042358398438	34.67470169067383	-254.8039398193359	1177.190795898438	898.18798828125	-559.656005859375	nan	nan	nan	
4	0.03	1029.7412109375	1053.009887695312	-235.5553894042969	1013.658813476562	1046.8369140625	-398.4437255859375	1016.478271484375	1110.965087890625	-326.5603637695312	1228.580810546875	1317.662963867188	-330.0759582519531	980.0359497070312	1248.97509765625	-329.1465148925781	1007.45751953125	1519.503295898438	-341.3208923339844	1176.337768554688	1441.232177734375	-333.8219299316406	969.56591796875	1377.630859375	-261.8150024414062	995.6737060546875	1477.48681640625	-438.2724304199219	1098.601318359375	1493.389282226562	-511.2682495117188	1075.9609375	1367.237670898438	-589.8069458007812	1085.58642578125	1149.727905273438	-614.9603881835938	1030.630981445312	1135.046020507812	-526.5958862304688	1101.197509765625	882.4495239257812	-603.2708129882812	1101.147583007812	1034.259643554688	-621.3009033203125	1204.631958007812	714.91064453125	-540.24951171875	1134.687744140625	793.2557983398438	-602.2095336914062	1199.425048828125	804.7982177734375	-573.4959716796875	1084.133056640625	1511.833251953125	-165.3193817138672	1075.019897460938	1438.928588867188	-92.27680969238281	1058.710083007812	1168.9619140625	-72.46749877929688	1060.5634765625	1141.307861328125	-168.4752807617188	1198.847534179688	915.3695678710938	-99.00930023193359	1132.201171875	898.832763671875	-37.86825942993164	1075.817749023438	1094.734619140625	-56.78885269165039	1224.469116210938	728.2527465820312	-108.4091415405273	1233.875854492188	806.5841064453125	-82.06267547607422	1175.604614257812	800.0897216796875	-35.25205612182617	1056.301513671875	1706.884643554688	-262.9948425292969	1238.178833007812	1730.134765625	-368.8174438476562	1230.15869140625	1730.565673828125	-270.2350463867188	1060.35791015625	1710.528930664062	-406.90576171875	1101.50244140625	949.7998657226562	-511.6375732421875	1153.039794921875	949.2606811523438	-141.8508453369141	1247.3671875	984.8341064453125	-223.8607177734375	1223.63037109375	1000.83251953125	-457.7933654785156	1142.976806640625	504.9386901855469	-462.6669006347656	1093.35546875	656.0582885742188	-501.3226928710938	1041.544799804688	28.55422019958496	-457.0256652832031	1060.311401367188	275.2673645019531	-477.632080078125	1264.398681640625	25.49455451965332	-397.7055053710938	1205.486572265625	34.66975021362305	-378.5646057128906	1165.036010742188	25.96801376342773	-478.6744995117188	974.1289672851562	35.19831085205078	-401.9662780761719	1150.15673828125	511.9722900390625	-191.6237182617188	1174.794677734375	781.0706176757812	-147.5175170898438	1029.59423828125	33.25632858276367	-211.1854095458984	1121.393310546875	391.3512268066406	-190.1506652832031	1261.6611328125	28.90744972229004	-255.57666015625	1197.70556640625	35.93452453613281	-284.658203125	1178.593017578125	28.5392951965332	-189.4122009277344	972.9015502929688	34.66549301147461	-254.795654296875	1176.961669921875	898.0753173828125	-559.4568481445312	nan	nan	nan	
